<?xml version="1.0" encoding="UTF-8" standalone="no"?>
<!DOCTYPE svg PUBLIC "-//W3C//DTD SVG 1.1//EN" "http://www.w3.org/Graphics/SVG/1.1/DTD/svg11.dtd">
<svg width="100%" height="100%" viewBox="0 0 1439 1638" version="1.1" xmlns="http://www.w3.org/2000/svg" xmlns:xlink="http://www.w3.org/1999/xlink" xml:space="preserve" xmlns:serif="http://www.serif.com/" style="fill-rule:evenodd;clip-rule:evenodd;stroke-linejoin:round;stroke-miterlimit:2;">
    <g transform="matrix(6.66251,0,0,6.64103,-5406.35,-1914.39)">
        <g id="ArtBoard1">
            <g>
                <g transform="matrix(1,0,0,1,433.321,-853.247)">
                    <path d="M487.504,1291.79L487.5,1291.79L573,1242.42L573,1315.37L488.467,1364.17L461.467,1348.58L461.658,1348.47L416.318,1322.3L416.127,1322.4L400,1313.09L400,1300.54L534.297,1223L525.128,1217.71L400,1289.95L400,1258.77L498.128,1202.12L488.958,1196.83L483.666,1199.88L400,1248.81L400,1217.01L489.161,1165.53L516.161,1181.12L525.331,1186.41L552.331,1202L561.501,1207.3L573,1213.94L573,1231.83L443.318,1306.71L488.658,1332.88L546,1299.78L546,1289.2L488.532,1322.38L461.532,1306.79L487.504,1291.79Z" style="fill:white;"/>
                </g>
                <g transform="matrix(0.95738,-0.552744,0.552744,0.95738,-188.611,526.663)">
                    <path d="M977.469,317.306L1031.19,410.36L975.257,507.244L867.545,507.244L810.864,409.07L863.763,317.447L863.763,317.24L977.469,317.24L977.469,317.306ZM869.172,326.403L821.444,409.07L872.835,498.082L969.967,498.082L1020.61,410.36L972.141,326.403L869.172,326.403Z" style="fill:white;"/>
                </g>
            </g>
        </g>
    </g>
</svg>
