<?xml version="1.0" encoding="utf-8"?>
<!-- Generator: Adobe Illustrator 25.2.3, SVG Export Plug-In . SVG Version: 6.00 Build 0)  -->
<svg version="1.1" id="Ebene_1" xmlns="http://www.w3.org/2000/svg" xmlns:xlink="http://www.w3.org/1999/xlink" x="0px" y="0px"
	 viewBox="0 0 374.995 500" style="enable-background:new 0 0 374.995 500;" xml:space="preserve">
<style type="text/css">
	.st0{fill:#363636;}
</style>
<g>
	<path class="st0" d="M243.755,468.726c0,8.043,7.046,11.881,14.346,11.881c12.173,0,24.214-5.88,24.214-19.294v-10.339
		c-6.538,2.681-13.198,3.189-19.859,3.697C250.801,455.565,243.755,459.78,243.755,468.726 M96.653,468.726
		c0,8.043,7.046,11.881,14.346,11.881c12.164,0,24.205-5.88,24.205-19.294v-10.339c-6.529,2.681-13.189,3.189-19.849,3.697
		C103.699,455.565,96.653,459.78,96.653,468.726 M362.561,231.257H218.807v143.744h-62.493V231.257H12.561v-62.502h143.754V25.001
		h62.493v143.754h143.754V231.257z M343.812,113.458c-6.924,6.886-15.532,14.346-20.602,22.38
		c-4.751,7.526-12.738,18.815-21.58,26.66h-37.375c8.608-7.601,17.846-16.5,23.876-25.503
		c10.386-14.713,20.075-32.182,36.237-42.295c1.947-1.223,3.594-2.182,4.995-2.954C334.677,98.613,339.513,105.866,343.812,113.458
		 M322.589,83.505c-1.326,0.837-2.897,1.816-4.807,2.963c-18.692,11.261-28.156,32.634-40.847,50.103
		c-7.761,8.937-19.069,18.965-29.407,25.927h-22.465v-19.247c12.7-7.554,25.955-17.629,34.563-29.671
		c8.984-12.559,15.927-26.425,27.921-36.312c5.033-4.788,10.489-8.354,16.152-12.427C310.444,70.598,316.756,76.835,322.589,83.505
		 M296.512,59.018c-1.167,0.771-2.728,1.712-4.807,2.85c-12.926,7.131-23.086,19.078-31.157,31.722
		c-8.354,13.575-22.041,26.566-35.484,35.917V97.485c10.583-11.214,18.194-29.172,28.786-39.059
		c9.746-9.097,15.804-12.559,19.304-14.675C281.347,48.247,289.155,53.364,296.512,59.018 M150.058,162.499h-17.545
		c-7.648-10-16.303-21.167-26.792-29.624c-3.659-2.803-7.328-6.077-11.223-8.184c-13.518-8.636-27.121-16.209-36.19-30.132
		c-3.349-5.136-5.334-8.373-6.5-10.423c5.654-6.802,11.769-13.18,18.316-19.078c6.849,9.501,15.889,20.743,25.522,28.1
		c13.744,9.341,28.41,17.291,39.633,29.906c5.127,5.654,10.179,11.9,14.779,18.006V162.499z M150.058,124.596
		c-10.611-11.43-22.69-23.678-36.651-31.9c-13.509-7.008-26.802-21.185-35.955-33.791c6.886-5.588,14.186-10.677,21.853-15.202
		c12.211,14.356,31.627,23.537,44.346,35.908c2.07,2.013,4.732,5.23,6.406,7.31V124.596z M46.088,91.558
		c1.11,1.722,3.039,4.901,6.388,10.48c11.91,19.859,33.904,24.76,49.934,39.473c5.24,5.757,11.928,13.876,15.814,20.988H84.329
		c-2.305-2.352-8.26-7.714-19.483-13.509c-14.741-7.601-25.325-20.141-33.537-34.205C35.665,106.647,40.623,98.896,46.088,91.558
		 M25.063,452.762c0-18.391,10.63-34.995,30.48-34.995c15.249,0,25.24,7.281,27.545,22.606H75.27
		c-2.691-9.84-9.473-15.71-19.727-15.71c-15.748,0-22.286,14.299-22.286,28.1c0,13.923,6.406,27.846,22.286,27.846
		c11.402,0,18.579-6.773,20.367-17.761h8.203c-2.69,14.694-11.919,24.657-28.57,24.657
		C34.414,487.503,25.063,472.301,25.063,452.762 M150.002,268.312v34.055c-12.305,17.056-21.722,35.851-39.379,48.363
		c-3.358,2.371-5.814,4.186-7.611,5.522c-8.269-4.478-16.134-9.595-23.556-15.259c1.167-0.781,2.7-1.787,4.685-3.086
		c14.045-9.153,25.56-21.289,33.161-35.249C124.818,289.479,137.208,277.362,150.002,268.312 M110.397,240.166
		c-8.984,7.328-17.507,15.108-24.638,24.958c-6.453,8.467-11.75,18.768-19.116,26.547c-2.766,3.659-6.905,7.093-10.818,9.84
		l-9.558,6.595c-5.56-7.15-10.583-14.722-15.014-22.672c7.987-5.259,15.644-12.992,20.198-20.771
		c6.143-10.038,11.458-18.467,20.517-27.159h41.599C112.429,238.472,110.971,239.705,110.397,240.166 M127.904,237.503h22.098
		v17.789c-13.754,9.887-27.526,22.277-36.613,36.378c-8.984,15.108-20.856,28.711-35.917,40.056
		c-1.966,1.477-3.641,2.662-5.08,3.594c-6.632-5.597-12.85-11.665-18.598-18.156l0.188-0.31
		c15.889-11.223,26.707-24.958,36.378-41.665C100.312,260.467,113.238,247.804,127.904,237.503 M88.459,468.472
		c0-11.119,7.676-17.883,23.18-19.925l10.63-1.411c2.822-0.254,7.554-1.016,10.122-2.164c2.559-1.157,2.813-4.6,2.813-6.905
		c0-7.789-4.61-13.405-16.519-13.405c-10.63,0-17.93,3.443-19.341,14.939h-7.817c1.157-15.579,12.813-21.834,27.281-21.834
		c13.452,0,24.083,5.23,24.083,20.564v36.011c0,6.002,1.533,7.413,8.072,5.108v6.002c-1.157,0.386-3.848,1.279-6.021,1.279
		c-1.279,0-2.305-0.122-3.462-0.386c-5.118-0.762-6.011-5.23-6.143-9.831c-6.406,7.15-15.118,10.988-24.722,10.988
		C98.958,487.503,88.459,481.238,88.459,468.472 M155.693,419.554h7.686v12.389h0.254c4.224-10.602,10.499-14.177,21.646-14.177
		v8.297c-17.291-0.386-21.9,12.389-21.9,27.206v32.446h-7.686V419.554z M191.018,393.75h8.457v11.364h-8.457V393.75z
		 M191.394,419.554h7.686v66.162h-7.686V419.554z M204.329,419.554h9.351v-18.391h7.686v18.391h12.418v6.388h-12.418v45.334
		c0,6.519,0.254,9.332,6.66,9.332c2.041,0,4.224-0.386,6.275-0.894v6.256c-1.797,0.376-5.127,1.533-8.843,1.533
		c-7.554,0-11.778-3.321-11.778-13.161v-48.401h-9.351V419.554z M235.562,468.472c0-11.119,7.686-17.883,23.18-19.925l10.63-1.411
		c2.822-0.254,7.564-1.016,10.122-2.164c2.559-1.157,2.822-4.6,2.822-6.905c0-7.789-4.619-13.405-16.529-13.405
		c-10.63,0-17.93,3.443-19.341,14.939h-7.808c1.148-15.579,12.803-21.834,27.281-21.834c13.443,0,24.073,5.23,24.073,20.564v36.011
		c0,6.002,1.543,7.413,8.072,5.108v6.002c-1.148,0.386-3.838,1.279-6.021,1.279c-1.279,0-2.305-0.122-3.452-0.386
		c-5.127-0.762-6.021-5.23-6.152-9.831c-6.406,7.15-15.108,10.988-24.722,10.988C246.06,487.503,235.562,481.238,235.562,468.472
		 M258.073,237.503h33.97c7.902,5.738,16.642,11.985,24.619,16.764c11.279,7.253,19.182,17.319,27.084,28.081l0.066,0.226
		c-4.233,8.372-9.069,16.369-14.45,23.923c-6.576-10.715-15.748-21.411-26.246-28.598c-14.675-10.762-30.931-19.652-41.994-35.325
		L258.073,237.503z M262.476,308.557c13.688,7.676,25.964,18.617,34.76,32.531c-6.726,5.569-13.848,10.64-21.317,15.165
		c-1.101-1.232-2.531-2.888-4.412-5.108c-11.515-13.575-29.379-18.655-40.856-32.756c-2.813-3.453-4.534-5.597-5.588-6.886v-38.664
		C234.489,285.989,248.713,300.852,262.476,308.557 M225.063,255.989v-18.485h20.207c7.441,11.468,15.616,22.474,27.14,31.044
		c16.03,11.929,36.284,22.531,47.404,40.941c1.298,2.145,2.38,3.885,3.255,5.343c-5.343,6.67-11.129,12.935-17.319,18.749
		c-13.057-16.04-29.36-29.991-45.983-40.47C247.086,285.311,233.896,269.413,225.063,255.989 M297.801,465.02h7.808
		c2.436,11.364,8.335,15.588,19.859,15.588c11.148,0,16.397-5.88,16.397-12.267c0-19.153-42.531-5.616-42.531-31.674
		c0-10.988,8.589-18.899,23.311-18.899c14.346,0,23.697,5.87,25.626,20.818h-7.818c-1.411-10.226-8.325-13.923-17.93-13.923
		c-9.737,0-14.986,4.591-14.986,11.364c0,18.015,42.521,6.773,42.521,32.192c0,12.643-11.402,19.285-27.027,19.285
		S298.44,477.541,297.801,465.02 M374.894,472.95h0.103v-450h-0.103c-1.044-12.841-11.778-22.944-24.892-22.944H24.997
		C11.883,0.006,1.15,10.109,0.105,22.95H0.002v450h0.103c-0.056,0.677-0.103,1.355-0.103,2.051c0,13.81,11.195,24.995,24.995,24.995
		h325.005c13.801,0,24.995-11.185,24.995-24.995C374.997,474.305,374.95,473.627,374.894,472.95"/>
</g>
</svg>
