<?xml version="1.0" encoding="utf-8"?>
<!-- Generator: Adobe Illustrator 25.2.3, SVG Export Plug-In . SVG Version: 6.00 Build 0)  -->
<svg version="1.1" id="Ebene_1" xmlns="http://www.w3.org/2000/svg" xmlns:xlink="http://www.w3.org/1999/xlink" x="0px" y="0px"
	 viewBox="0 0 1000 137.18" style="enable-background:new 0 0 1000 137.18;" xml:space="preserve">
<style type="text/css">
	.st0{fill:#363636;}
</style>
<g>
	<g>
		<path class="st0" d="M996.357,77.993c0-1.524-0.889-2.287-2.789-2.287h-2.928v7.755h1.143v-3.303h2.16l1.27,3.303h1.27
			l-1.391-3.557C995.855,79.65,996.357,79.009,996.357,77.993 M993.181,79.142h-1.397v-2.42h1.785c0.756,0,1.645,0.127,1.645,1.143
			C995.214,79.142,994.203,79.142,993.181,79.142"/>
	</g>
	<polygon class="st0" points="818.192,64.525 786.04,64.525 786.04,5.054 760.5,5.054 760.5,86.254 818.192,86.254 	"/>
	<polygon class="st0" points="368.456,34.916 380.531,86.257 399.459,86.257 411.407,34.916 411.407,86.257 433.777,86.257 
		433.777,5.051 400.609,5.051 390.059,49.785 379.382,5.051 346.346,5.051 346.346,86.257 368.456,86.257 	"/>
	<g>
		<path class="st0" d="M232.989,64.525h-46.005V53.848h34.82V34.914h-34.82V25.38h44.1V5.054h-43.083
			c-21.342,0-25.921,12.068-25.921,20.326v60.874h70.91V64.525z"/>
	</g>
	<polygon class="st0" points="555.01,43.554 579.667,86.256 603.683,86.256 603.683,5.05 579.667,5.05 579.667,46.857 554.883,5.05 
		529.724,5.05 529.724,86.256 555.01,86.256 	"/>
	<polygon class="st0" points="897.238,64.525 851.233,64.525 851.233,53.848 886.053,53.848 886.053,34.914 851.233,34.914 
		851.233,25.38 895.332,25.38 895.332,5.054 826.328,5.054 826.328,86.254 897.238,86.254 	"/>
	<polygon class="st0" points="266.792,34.916 278.866,86.257 297.794,86.257 309.742,34.916 309.742,86.257 332.112,86.257 
		332.112,5.051 298.944,5.051 288.394,49.785 277.717,5.051 244.681,5.051 244.681,86.257 266.792,86.257 	"/>
	<polygon class="st0" points="518.919,64.525 472.914,64.525 472.914,53.848 507.74,53.848 507.74,34.914 472.914,34.914 
		472.914,25.38 517.014,25.38 517.014,5.054 448.009,5.054 448.009,86.254 518.919,86.254 	"/>
	<path class="st0" d="M669.891,86.258h25.54l3.43-11.185h26.436l3.43,11.185h25.546L724.788,5.046h-25.413L669.891,86.258z
		 M712.085,33.133l7.749,24.403h-15.504L712.085,33.133z"/>
	<g>
		<path class="st0" d="M980.605,31.739c0-18.305-10.931-26.69-29.484-26.69h-43.077v81.206h24.651V57.787h14.996l8.638,28.468
			h24.276l-12.328-34.312C975.771,47.999,980.605,40.625,980.605,31.739 M944.89,40.123h-12.456V23.73h11.185
			c9.407,0,12.328,3.049,12.328,8.257C955.948,39.367,949.596,40.123,944.89,40.123"/>
	</g>
	<polygon class="st0" points="630.878,86.256 656.424,86.256 656.424,26.785 675.607,26.785 675.607,5.05 611.69,5.05 
		611.69,26.785 630.878,26.785 	"/>
	<g>
		<polygon class="st0" points="822.263,116.882 828.614,116.882 825.439,105.691 		"/>
		<path class="st0" d="M738.766,105.315h-5.971v6.231h5.971c2.541,0,3.817-0.895,3.817-3.176
			C742.584,106.21,741.434,105.315,738.766,105.315z"/>
		<path class="st0" d="M161.317,95.017v37.113h818.515V95.017H161.317z M475.838,127.423c-6.098,0-9.782-1.906-11.058-7.368
			l5.469-1.651c0.381,3.309,2.922,4.198,6.098,4.198c1.779,0,5.335-0.133,5.335-2.928c0-1.651-1.143-2.408-2.668-3.049
			c-1.518-0.508-3.557-0.883-5.59-1.391c-4.065-1.022-7.882-2.547-7.882-7.374c0-5.971,5.087-8.257,10.55-8.257
			c6.098,0,9.401,1.779,10.544,6.987l-5.208,1.651c-0.375-3.176-2.414-4.071-5.336-4.071c-1.779,0-4.954,0.387-4.954,3.055
			c0,1.397,1.27,2.16,2.795,2.547c1.524,0.502,3.563,0.756,5.59,1.258c4.071,0.895,7.882,2.668,7.882,7.755
			C487.405,125.137,481.815,127.423,475.838,127.423z M533.153,126.794h-5.717l-2.922-12.195c-0.508-2.293-1.149-6.612-1.149-6.612
			s-0.635,4.319-1.137,6.612l-2.928,12.195h-5.596l-7.241-26.435h5.717c0,0,2.928,10.169,3.817,15.383l0.635,3.805l4.065-19.188
			h5.463l4.065,19.188l0.514-3.805c0.635-5.215,3.805-15.383,3.805-15.383h5.856L533.153,126.794z M567.843,126.794h-6.098v-26.435
			h6.098V126.794z M612.58,105.319h-8.39v21.475h-5.844v-21.475h-8.384v-4.96h22.618V105.319z M655.657,126.791h-22.618v-4.573
			l14.482-16.902h-13.593v-4.96h21.475v4.458l-14.482,17.023h14.736V126.791z M701.408,126.791H681.07v-26.435h20.211v4.96h-14.113
			v5.215h10.804v4.7h-10.804v6.606h14.24V126.791z M743.721,126.796l-4.319-10.429h-6.606v10.429h-5.844v-26.435h12.831
			c4.827,0,8.644,2.026,8.644,7.241c0,3.303-1.276,5.729-4.065,7.12l5.208,12.074H743.721z M792.269,126.791h-19.061v-26.435h5.971
			v21.481h13.091V126.791z M831.79,126.797l-1.651-5.215h-9.28l-1.524,5.215h-6.352l8.765-26.442h7.501l8.766,26.442H831.79z
			 M882.751,126.797h-6.104l-10.163-18.559v18.559h-5.336v-26.442h6.098l10.163,18.559v-18.559h5.341V126.797z M917.317,126.792
			h-8.263v-26.436h7.882c9.147,0,15.123,3.055,15.123,13.097C932.059,123.102,926.342,126.792,917.317,126.792z"/>
		<path class="st0" d="M918.333,105.317h-3.176v16.521h3.176c5.59,0,7.876-2.287,7.876-8.009
			C926.209,108.239,924.183,105.317,918.333,105.317z"/>
	</g>
	<g>
		<path class="st0" d="M993.292,86.331c-3.698,0-6.711-3.013-6.711-6.711c0-3.698,3.013-6.705,6.711-6.705
			c3.698,0,6.711,3.007,6.711,6.705C1000.003,83.318,996.99,86.331,993.292,86.331z M993.292,74.038
			c-3.084,0-5.589,2.505-5.589,5.583c0,3.084,2.505,5.589,5.589,5.589c3.084,0,5.589-2.505,5.589-5.589
			C998.88,76.543,996.376,74.038,993.292,74.038z"/>
		<path class="st0" d="M68.592,137.183c-37.823,0-68.592-30.772-68.592-68.592S30.769-0.001,68.592-0.001
			s68.595,30.772,68.595,68.592S106.415,137.183,68.592,137.183z M68.592,2.196c-36.612,0-66.395,29.786-66.395,66.395
			s29.783,66.395,66.395,66.395s66.398-29.786,66.398-66.395S105.204,2.196,68.592,2.196z"/>
		<path class="st0" d="M68.592,132.197c-35.076,0-63.609-28.533-63.609-63.606S33.516,4.985,68.592,4.985
			s63.609,28.533,63.609,63.606S103.668,132.197,68.592,132.197z M68.592,6.083c-34.47,0-62.516,28.037-62.516,62.508
			s28.046,62.508,62.516,62.508s62.516-28.037,62.516-62.508S103.062,6.083,68.592,6.083z M68.592,115.089
			c-25.636,0-46.492-20.859-46.492-46.492c0-25.639,20.857-46.504,46.492-46.504s46.489,20.865,46.489,46.504
			C115.081,94.23,94.227,115.089,68.592,115.089z M68.592,23.192c-25.033,0-45.399,20.369-45.399,45.405
			c0,25.03,20.366,45.393,45.399,45.393c25.03,0,45.396-20.363,45.396-45.393C113.988,43.561,93.622,23.192,68.592,23.192z"/>
	</g>
	<path class="st0" d="M68.592,37.315c-17.271,0-31.275,14.004-31.275,31.275c0,17.271,14.004,31.275,31.275,31.275
		c17.271,0,31.275-14.004,31.275-31.275C99.867,51.319,85.863,37.315,68.592,37.315z M86.776,74.163H74.163v12.613H63.021V74.163
		H50.408V63.014h12.613V50.408h11.143v12.607h12.613V74.163z"/>
	<polygon class="st0" points="64.606,34.819 68.574,25.334 72.579,34.807 	"/>
	<polygon class="st0" points="72.577,102.36 68.609,111.845 64.604,102.372 	"/>
	<polygon class="st0" points="34.822,72.575 25.336,68.607 34.81,64.602 	"/>
	<polygon class="st0" points="102.359,64.604 111.844,68.573 102.371,72.577 	"/>
	<polygon class="st0" points="41.893,47.531 37.991,38.015 47.525,41.887 	"/>
	<polygon class="st0" points="95.291,89.652 99.192,99.168 89.659,95.302 	"/>
	<polygon class="st0" points="47.529,95.292 38.02,99.194 41.885,89.661 	"/>
	<polygon class="st0" points="89.65,41.894 99.166,37.992 95.3,47.52 	"/>
	<polygon class="st0" points="51.988,38.915 52.024,28.631 59.35,35.86 	"/>
	<polygon class="st0" points="85.196,98.264 85.16,108.554 77.834,101.325 	"/>
	<polygon class="st0" points="38.918,85.197 28.634,85.161 35.857,77.829 	"/>
	<polygon class="st0" points="98.263,51.985 108.553,52.021 101.324,59.347 	"/>
	<polygon class="st0" points="35.866,59.35 28.619,52.054 38.909,51.982 	"/>
	<polygon class="st0" points="101.318,77.829 108.565,85.125 98.275,85.203 	"/>
	<polygon class="st0" points="59.352,101.319 52.056,108.566 51.984,98.276 	"/>
	<polygon class="st0" points="77.832,35.868 85.127,28.621 85.2,38.91 	"/>
	<path class="st0" d="M37.915,119.212l-1.113-0.69l1.688-9.346l1.113,0.69l-0.575,2.777l3.206,1.984l2.25-1.73l1.04,0.641
		L37.915,119.212z M41.399,115.274l-2.571-1.597l-0.907,4.283l0.024,0.018L41.399,115.274z"/>
	<g>
		<path class="st0" d="M31.181,114.578l-2.904-2.625c-1.319-1.198-1.391-2.553-0.29-3.775c1.101-1.222,2.456-1.313,3.775-0.103
			l2.027,1.827l2.408-2.686l0.883,0.799L31.181,114.578z M33.123,110.64l-1.724-1.561c-0.992-0.919-1.827-0.889-2.535-0.103
			c-0.696,0.78-0.629,1.609,0.369,2.504l1.724,1.567L33.123,110.64z"/>
		<path class="st0" d="M23.641,107.279l-2.389-3.079c-1.089-1.416-0.907-2.752,0.399-3.763c1.307-1.004,2.656-0.859,3.732,0.563
			l1.67,2.141l2.861-2.214l0.72,0.938L23.641,107.279z M26.266,103.752l-1.416-1.833c-0.817-1.077-1.639-1.192-2.48-0.55
			c-0.823,0.653-0.913,1.47-0.085,2.541l1.416,1.827L26.266,103.752z"/>
	</g>
	<polygon class="st0" points="17.571,98.744 14.716,93.305 15.587,92.839 17.891,97.237 20.378,95.925 18.224,91.829 19.095,91.369 
		21.249,95.465 23.947,94.037 21.618,89.621 22.495,89.155 25.374,94.624 	"/>
	<polygon class="st0" points="13.268,89.814 12.887,88.688 20.315,86.196 18.809,81.72 19.753,81.405 21.634,87.001 	"/>
	<polygon class="st0" points="10.652,80.967 10.452,79.8 18.171,78.487 17.372,73.841 18.352,73.678 19.344,79.491 	"/>
	<path class="st0" d="M9.366,68.692l0.006-1.307l8.868-3.412l-0.012,1.307l-2.668,0.956l-0.036,3.769l2.65,1.016l-0.012,1.222
		L9.366,68.692z M14.538,69.624l0.03-3.025l-4.138,1.452v0.03L14.538,69.624z"/>
	<polygon class="st0" points="11.07,59.605 10.58,62.545 9.606,62.376 10.78,55.334 11.754,55.498 11.264,58.438 18.983,59.72 
		18.783,60.888 	"/>
	<polygon class="st0" points="11.716,52.193 20.149,54.728 20.488,53.591 12.061,51.056 	"/>
	<g>
		<path class="st0" d="M14.784,43.428c1.192-2.565,3.805-2.94,5.995-1.924c2.19,1.016,3.587,3.242,2.396,5.813
			c-1.198,2.571-3.811,2.94-6.001,1.924C14.984,48.231,13.58,45.993,14.784,43.428 M22.273,46.906
			c0.919-1.972-0.381-3.581-1.996-4.325c-1.609-0.75-3.684-0.708-4.604,1.264c-0.913,1.972,0.387,3.569,1.996,4.325
			C19.291,48.921,21.353,48.872,22.273,46.906"/>
	</g>
	<polygon class="st0" points="19.046,36.047 19.796,35.036 28.326,35.563 28.338,35.545 22.621,31.262 23.293,30.366 30.346,35.641 
		29.566,36.676 21.127,36.168 21.115,36.192 26.771,40.426 26.1,41.316 	"/>
	<polygon class="st0" points="30.272,23.392 35.154,19.666 35.753,20.452 31.809,23.459 33.52,25.691 37.192,22.89 37.797,23.67 
		34.119,26.483 35.976,28.915 39.951,25.884 40.55,26.665 35.644,30.421 	"/>
	<polygon class="st0" points="38.607,17.403 40.065,16.696 45.818,22.152 45.11,14.246 46.562,13.532 50.421,21.481 49.411,21.977 
		46.205,15.359 46.187,15.371 46.894,23.199 45.987,23.64 40.288,18.232 40.264,18.25 43.464,24.862 42.46,25.352 	"/>
	<polygon class="st0" points="51.281,11.894 52.866,11.543 57.21,18.161 58.353,10.315 59.938,9.958 61.855,18.572 60.761,18.82 
		59.17,11.652 59.139,11.658 58.02,19.431 57.034,19.649 52.727,13.091 52.703,13.097 54.3,20.266 53.205,20.502 	"/>
	<polygon class="st0" points="64.584,9.549 70.736,9.447 70.754,10.433 65.787,10.517 65.848,13.324 70.47,13.252 70.494,14.238 
		65.86,14.316 65.921,17.365 70.923,17.287 70.948,18.273 64.747,18.381 	"/>
	<polygon class="st0" points="74.71,9.73 75.956,9.936 79.422,17.758 79.446,17.764 80.62,10.716 81.727,10.898 80.275,19.585 
		78.993,19.373 75.557,11.636 75.538,11.63 74.371,18.605 73.264,18.423 	"/>
	<polygon class="st0" points="87.125,13.555 84.324,12.569 84.644,11.632 91.371,14.003 91.051,14.941 88.244,13.949 85.661,21.353 
		84.536,20.954 	"/>
	<path class="st0" d="M95.799,16.199l1.161,0.623l-1.083,9.425l-1.149-0.629l0.387-2.795l-3.321-1.772l-2.135,1.869l-1.071-0.575
		L95.799,16.199z M92.587,20.349l2.662,1.422l0.623-4.325l-0.018-0.012L92.587,20.349z"/>
	<polygon class="st0" points="102.736,20.343 103.68,21.069 98.865,27.275 102.603,30.173 101.998,30.959 97.322,27.336 	"/>
	<polygon class="st0" points="109.93,26.362 114.092,30.881 113.372,31.558 110.009,27.904 107.952,29.816 111.091,33.216 
		110.359,33.887 107.226,30.487 104.994,32.562 108.381,36.246 107.655,36.912 103.457,32.369 	"/>
	<g>
		<path class="st0" d="M116.533,34.023l2.25,3.539c0.907,1.416,0.708,2.765-0.496,3.527c-0.901,0.581-1.875,0.659-2.71-0.097
			l-0.018,0.012c0.387,0.98-0.151,1.561-0.817,2.105c-0.684,0.508-1.543,1.01-1.772,1.754l-0.714-1.113
			c0.127-0.478,1.028-0.835,1.664-1.452c0.647-0.575,1.161-1.143,0.544-2.111l-1.555-2.444l-3.176,2.039l-0.629-1.004
			L116.533,34.023z M115.069,39.298c0.593,0.932,1.349,1.585,2.432,0.895c0.732-0.478,1.016-1.216,0.417-2.154l-1.579-2.486
			l-2.589,1.664L115.069,39.298z"/>
		<path class="st0" d="M124.174,48.582l1.131,3.503c0.526,1.597-0.121,2.71-1.7,3.164c-1.567,0.448-2.783-0.133-3.291-1.742
			l-0.786-2.438l-3.454,0.98l-0.345-1.065L124.174,48.582z M120.472,50.796l0.678,2.081c0.375,1.216,1.107,1.591,2.117,1.307
			c1.004-0.284,1.367-0.98,0.98-2.19l-0.678-2.081L120.472,50.796z"/>
		<path class="st0" d="M126.85,58.756l0.466,4.162c0.181,1.676-0.587,2.789-2.002,2.952c-1.065,0.121-1.978-0.242-2.389-1.288
			l-0.03,0.006c-0.079,1.053-0.817,1.337-1.651,1.524c-0.847,0.163-1.839,0.236-2.365,0.799l-0.151-1.313
			c0.327-0.369,1.288-0.296,2.129-0.569c0.835-0.236,1.549-0.514,1.416-1.651l-0.315-2.879l-3.745,0.43l-0.133-1.18L126.85,58.756z
			 M123.214,62.845c0.121,1.089,0.502,2.014,1.785,1.863c0.871-0.097,1.452-0.635,1.331-1.742l-0.327-2.922l-3.067,0.345
			L123.214,62.845z"/>
		<path class="st0" d="M127.591,73.78c-0.248,2.819-2.583,4.053-4.979,3.847c-2.414-0.206-4.495-1.827-4.241-4.652
			c0.248-2.819,2.577-4.059,4.979-3.847C125.752,69.34,127.833,70.955,127.591,73.78 M119.352,73.067
			c-0.181,2.16,1.585,3.23,3.357,3.388c1.772,0.145,3.702-0.599,3.89-2.765c0.194-2.16-1.579-3.23-3.351-3.382
			C121.469,70.151,119.539,70.901,119.352,73.067"/>
	</g>
	<polygon class="st0" points="124.682,83.439 125.469,80.584 126.425,80.838 124.531,87.704 123.575,87.443 124.368,84.582 
		116.812,82.495 117.127,81.352 	"/>
	<polygon class="st0" points="123.266,90.979 120.664,96.557 119.769,96.139 121.868,91.639 119.322,90.459 117.368,94.657 
		116.466,94.246 118.426,90.042 115.656,88.759 113.538,93.296 112.643,92.879 115.256,87.271 	"/>
	<g>
		<path class="st0" d="M108.51,100.97c-0.333-1.101,0-2.244,0.599-3.079c1.549-2.166,4.204-2.202,6.08-0.853
			c2.087,1.488,3.061,3.938,1.422,6.225c-1.125,1.573-2.746,2.341-4.61,1.409l0.69-0.968c1.222,0.587,2.341,0.073,3.115-1.01
			c1.252-1.754,0.266-3.569-1.258-4.664c-1.494-1.065-3.478-1.18-4.64,0.429c-1.071,1.5-0.671,3.103,0.671,3.993l1.658-2.305
			l0.805,0.575l-2.268,3.17l-3.775-2.71l0.442-0.605L108.51,100.97z"/>
	</g>
	<polygon class="st0" points="110.829,109.963 106.329,114.155 105.657,113.435 109.287,110.041 107.381,107.991 103.994,111.142 
		103.322,110.428 106.71,107.265 104.629,105.026 100.975,108.438 100.298,107.712 104.829,103.49 	"/>
	<polygon class="st0" points="102.794,116.837 97.598,120.158 97.072,119.329 101.264,116.643 99.751,114.278 95.837,116.783 
		95.311,115.954 99.213,113.449 97.574,110.872 93.345,113.583 92.813,112.748 98.039,109.402 	"/>
	<polygon class="st0" points="46.021,118.43 51.635,121.031 52.053,120.136 46.439,117.522 	"/>
	<path class="st0" d="M58.799,117.969l1.27,0.284l1.434,9.346l-1.264-0.284l-0.363-2.795l-3.642-0.817l-1.537,2.377l-1.174-0.272
		L58.799,117.969z M56.821,122.821l2.91,0.653l-0.532-4.331l-0.024-0.006L56.821,122.821z"/>
	<g>
		<path class="st0" d="M68.185,118.846c2.807,0.006,4.222,2.226,4.21,4.646c-0.018,2.414-1.452,4.622-4.259,4.604
			c-2.813-0.012-4.222-2.232-4.21-4.646S65.373,118.828,68.185,118.846 M68.143,127.109c2.154,0.012,3.061-1.839,3.073-3.617
			c0.006-1.785-0.889-3.648-3.037-3.66c-2.154-0.006-3.073,1.839-3.079,3.624C65.094,125.234,65.983,127.097,68.143,127.109"/>
		<path class="st0" d="M74.451,118.723l3.775-0.835c1.73-0.381,2.849,0.363,3.206,1.966c0.351,1.603-0.351,2.765-2.087,3.127
			l-2.631,0.581l0.786,3.527l-1.155,0.248L74.451,118.723z M76.507,122.6l2.244-0.496c1.307-0.272,1.76-0.974,1.53-1.996
			c-0.224-1.028-0.932-1.452-2.232-1.168l-2.244,0.496L76.507,122.6z"/>
	</g>
	<polygon class="st0" points="85.041,120.597 85.465,121.492 91.072,118.897 90.655,118.002 	"/>
</g>
</svg>
